<svg width="302" height="198" viewBox="0 0 302 198" fill="none" xmlns="http://www.w3.org/2000/svg">
<rect x="1.78943" width="299.299" height="186.501" rx="35" transform="rotate(0.526576 1.78943 0)" fill="#003C7A"/>
<path d="M253.251 146.949L221.753 146.659L222.359 80.662L221.759 80.6565L203.153 146.488L167.005 146.156L149.762 79.9948L149.012 79.9879L148.406 145.985L119.757 145.722L120.703 42.8261L172.3 43.3004L186.645 98.3345L187.245 98.34L202.299 43.5761L254.197 44.053L253.251 146.949Z" fill="black" fill-opacity="0.9"/>
<path d="M87.9786 43.2521C96.1783 43.3275 103.659 45.4463 110.421 49.6086C117.284 53.6719 122.684 59.1717 126.62 66.1082C130.658 72.9456 132.639 80.4641 132.563 88.6638L132.445 101.563C132.369 109.763 130.25 117.294 126.087 124.156C122.024 130.919 116.525 136.318 109.587 140.355C102.751 144.292 95.2326 146.223 87.0329 146.148L40.6849 145.722L41.6306 42.8261L87.9786 43.2521ZM72.7027 122.165L84.2523 122.271C88.4521 122.31 92.0153 120.892 94.9418 118.019C97.8683 115.146 99.3509 111.61 99.3895 107.41L99.6252 81.7608C99.6638 77.561 98.2465 73.9978 95.3733 71.0712C92.5 68.1447 88.9635 66.6621 84.7637 66.6235L73.2142 66.5174L72.7027 122.165Z" fill="#CFD4E5"/>
</svg>
